<svg xmlns="http://www.w3.org/2000/svg">
  <symbol id="forum" viewBox="0 0 24 24"><path d="M12.102 0C5.5 0 .13 5.25 0 11.78L.007 24l12.097-.01C18.686 23.935 24 18.586 24 11.995S18.686.056 12.102 0ZM12 18.857a6.78 6.78 0 0 1-2.955-.666l-4.304 1.095 1.227-4.018A6.86 6.86 0 1 1 12 18.857Z"/></symbol>
  <symbol id="bluesky" viewBox="0 0 24 24"><path d="M12 10.8c-1-2.1-4-6-6.8-8C2.6 1 1.6 1.3.9 1.6.1 1.9 0 3 0 3.8c0 .7.4 5.6.6 6.4C1.4 13 4.3 14 7 13.6h.4H7c-4 .6-7.4 2-2.8 7 5 5.3 6.8-1 7.8-4.2 1 3.2 2 9.3 7.7 4.3 4.3-4.3 1.2-6.5-2.7-7h-.4.4c2.7.3 5.6-.6 6.4-3.4.2-.8.6-5.7.6-6.4 0-.7-.1-1.9-.9-2.2-.7-.3-1.7-.7-4.3 1.2-2.8 2-5.7 5.9-6.8 8"/></symbol>
  <symbol id="discord" viewBox="0 0 24 24"><path d="M20.32 4.37a19.8 19.8 0 0 0-4.93-1.51 13.78 13.78 0 0 0-.64 1.28 18.27 18.27 0 0 0-5.5 0 12.64 12.64 0 0 0-.64-1.28A19.74 19.74 0 0 0 3.64 4.4 20.26 20.26 0 0 0 .11 18.09a19.9 19.9 0 0 0 6.06 3.05 14.24 14.24 0 0 0 1.27-2.05 13.1 13.1 0 0 1-1.95-.99l.43-.41a14.2 14.2 0 0 0 12.14 0l.44.43a12.29 12.29 0 0 1-1.95 1.01 15.97 15.97 0 0 0 1.31 2.01 19.84 19.84 0 0 0 6.03-3.05 20.12 20.12 0 0 0-3.57-13.72ZM8.02 15.33c-1.18 0-2.16-1.08-2.16-2.42s.96-2.42 2.16-2.42 2.18 1.1 2.16 2.42c0 1.34-.96 2.42-2.16 2.42Zm7.97 0c-1.18 0-2.15-1.08-2.15-2.42s.95-2.42 2.15-2.42 2.18 1.1 2.16 2.42c0 1.34-.94 2.42-2.16 2.42Z"/></symbol>
  <symbol id="mastodon" viewBox="0 0 24 24"><path d="M16.45 17.77c2.77-.33 5.18-2.03 5.49-3.58.47-2.45.44-5.97.44-5.97 0-4.77-3.15-6.17-3.15-6.17-3.16-1.44-11.17-1.44-14.33 0 0 0-3.14 1.4-3.14 6.17 0 1.13-.03 2.45 0 3.79.12 4.67.87 9.27 5.2 10.4 3.38.89 6.29.27 9.02-.33l-.08-1.8s-1.8.56-3.8.5c-2-.08-4.1-.22-4.43-2.66l-.04-.68s4.27 1.05 8.82.33Zm2.22-3.4h-2.3v-5.6c0-1.19-.5-1.79-1.5-1.79-1.1 0-1.66.71-1.66 2.12v3.07h-2.3V9.1c0-1.4-.55-2.12-1.65-2.12-1 0-1.5.6-1.5 1.78v5.61h-2.3V8.6c0-2.42 1.3-3.86 3.37-3.86 1.18 0 2.07.45 2.66 1.35l.57.96.58-.96a2.97 2.97 0 0 1 2.66-1.35c2.02 0 3.37 1.46 3.37 3.86v5.78Z"/></symbol>
  <symbol id="reddit" viewBox="0 0 24 24"><path d="M14.41 16.87a3.38 3.38 0 0 1-2.37.63 3.37 3.37 0 0 1-2.36-.63 1 1 0 0 0-1.42 1.41 5.11 5.11 0 0 0 3.78 1.22 5.12 5.12 0 0 0 3.78-1.22 1 1 0 1 0-1.41-1.41ZM9.2 15a1 1 0 1 0-1-1 1 1 0 0 0 1 1Zm6-2a1 1 0 1 0 1 1 1 1 0 0 0-1-1Zm7.8-1.22a3.77 3.77 0 0 0-6.8-2.26 16.5 16.5 0 0 0-3.04-.48l.85-5.7 2.09.7a3 3 0 1 0 .66-1.88l-3.24-1.1a1 1 0 0 0-1.3.8l-1.09 7.17a16.66 16.66 0 0 0-3.34.49 3.77 3.77 0 0 0-6.22 4.23A4.86 4.86 0 0 0 1 16c0 3.92 4.83 7 11 7s11-3.08 11-7a4.86 4.86 0 0 0-.57-2.25 3.78 3.78 0 0 0 .57-1.97ZM12 21c-4.88 0-9-2.29-9-5s4.12-5 9-5 9 2.29 9 5-4.12 5-9 5Z"/></symbol>
  <symbol id="x" viewBox="0 0 24 24"><path d="M18.242 2.25h3.313l-7.23 8.258 8.503 11.242h-6.656l-5.219-6.816-5.96 6.816H1.68l7.726-8.836L1.258 2.25h6.824l4.71 6.23 5.45-6.23Zm-1.16 17.523h1.832L7.082 4.125H5.113l11.969 15.648Z"/></symbol>
  <symbol id="youtube" viewBox="0 0 24 24"><path d="M23.5 6.2A3 3 0 0 0 21.4 4c-1.9-.5-9.4-.5-9.4-.5S4.5 3.5 2.6 4A3 3 0 0 0 .5 6.3C0 8 0 12 0 12s0 4 .5 5.8A3 3 0 0 0 2.6 20c1.9.6 9.4.6 9.4.6s7.5 0 9.4-.6a3 3 0 0 0 2.1-2c.5-2 .5-5.9.5-5.9s0-4-.5-5.8Zm-14 9.4V8.4l6.3 3.6-6.3 3.6Z"/></symbol>
</svg>

